<svg xmlns="http://www.w3.org/2000/svg" width="1920" height="1080" viewBox="0 0 1920 1080">
<defs>
  <filter id="sh" x="-20%" y="-20%" width="140%" height="140%">
    <feDropShadow dx="5" dy="8" stdDeviation="5" flood-color="#000" flood-opacity=".38"/>
  </filter>
  <filter id="shs" x="-30%" y="-30%" width="160%" height="160%">
    <feDropShadow dx="3" dy="4" stdDeviation="3" flood-color="#000" flood-opacity=".4"/>
  </filter>
  <filter id="grain" x="0" y="0" width="100%" height="100%">
    <feTurbulence type="fractalNoise" baseFrequency=".9" numOctaves="2" seed="3" result="n"/>
    <feColorMatrix in="n" type="matrix" values="0 0 0 0 0  0 0 0 0 0  0 0 0 0 0  0 0 0 .5 0"/>
  </filter>
</defs>
<rect width="1920" height="1080" fill="#7A5A3C"/><rect x="0" y="0" width="52" height="1080" fill="#86643F"/><line x1="0" y1="0" x2="0" y2="1080" stroke="#2A1D12" stroke-width="3" opacity=".75"/><rect x="52" y="0" width="52" height="1080" fill="#7A5A3C"/><line x1="52" y1="0" x2="52" y2="1080" stroke="#2A1D12" stroke-width="3" opacity=".75"/><rect x="104" y="0" width="44" height="1080" fill="#795839"/><line x1="104" y1="0" x2="104" y2="1080" stroke="#2A1D12" stroke-width="3" opacity=".75"/><rect x="148" y="0" width="44" height="1080" fill="#6F5036"/><line x1="148" y1="0" x2="148" y2="1080" stroke="#2A1D12" stroke-width="3" opacity=".75"/><rect x="192" y="0" width="60" height="1080" fill="#7A5A3C"/><line x1="192" y1="0" x2="192" y2="1080" stroke="#2A1D12" stroke-width="3" opacity=".75"/><rect x="252" y="0" width="60" height="1080" fill="#86643F"/><line x1="252" y1="0" x2="252" y2="1080" stroke="#2A1D12" stroke-width="3" opacity=".75"/><rect x="312" y="0" width="44" height="1080" fill="#7A5A3C"/><line x1="312" y1="0" x2="312" y2="1080" stroke="#2A1D12" stroke-width="3" opacity=".75"/><rect x="356" y="0" width="52" height="1080" fill="#8D6A45"/><line x1="356" y1="0" x2="356" y2="1080" stroke="#2A1D12" stroke-width="3" opacity=".75"/><rect x="408" y="0" width="44" height="1080" fill="#86643F"/><line x1="408" y1="0" x2="408" y2="1080" stroke="#2A1D12" stroke-width="3" opacity=".75"/><rect x="452" y="0" width="44" height="1080" fill="#795839"/><line x1="452" y1="0" x2="452" y2="1080" stroke="#2A1D12" stroke-width="3" opacity=".75"/><rect x="496" y="0" width="52" height="1080" fill="#7A5A3C"/><line x1="496" y1="0" x2="496" y2="1080" stroke="#2A1D12" stroke-width="3" opacity=".75"/><rect x="548" y="0" width="60" height="1080" fill="#7A5A3C"/><line x1="548" y1="0" x2="548" y2="1080" stroke="#2A1D12" stroke-width="3" opacity=".75"/><rect x="608" y="0" width="44" height="1080" fill="#795839"/><line x1="608" y1="0" x2="608" y2="1080" stroke="#2A1D12" stroke-width="3" opacity=".75"/><rect x="652" y="0" width="44" height="1080" fill="#795839"/><line x1="652" y1="0" x2="652" y2="1080" stroke="#2A1D12" stroke-width="3" opacity=".75"/><rect x="696" y="0" width="60" height="1080" fill="#8D6A45"/><line x1="696" y1="0" x2="696" y2="1080" stroke="#2A1D12" stroke-width="3" opacity=".75"/><rect x="756" y="0" width="44" height="1080" fill="#86643F"/><line x1="756" y1="0" x2="756" y2="1080" stroke="#2A1D12" stroke-width="3" opacity=".75"/><rect x="800" y="0" width="44" height="1080" fill="#795839"/><line x1="800" y1="0" x2="800" y2="1080" stroke="#2A1D12" stroke-width="3" opacity=".75"/><rect x="844" y="0" width="44" height="1080" fill="#6F5036"/><line x1="844" y1="0" x2="844" y2="1080" stroke="#2A1D12" stroke-width="3" opacity=".75"/><rect x="888" y="0" width="52" height="1080" fill="#86643F"/><line x1="888" y1="0" x2="888" y2="1080" stroke="#2A1D12" stroke-width="3" opacity=".75"/><rect x="940" y="0" width="60" height="1080" fill="#7A5A3C"/><line x1="940" y1="0" x2="940" y2="1080" stroke="#2A1D12" stroke-width="3" opacity=".75"/><rect x="1000" y="0" width="60" height="1080" fill="#6F5036"/><line x1="1000" y1="0" x2="1000" y2="1080" stroke="#2A1D12" stroke-width="3" opacity=".75"/><rect x="1060" y="0" width="60" height="1080" fill="#86643F"/><line x1="1060" y1="0" x2="1060" y2="1080" stroke="#2A1D12" stroke-width="3" opacity=".75"/><rect x="1120" y="0" width="44" height="1080" fill="#795839"/><line x1="1120" y1="0" x2="1120" y2="1080" stroke="#2A1D12" stroke-width="3" opacity=".75"/><rect x="1164" y="0" width="60" height="1080" fill="#86643F"/><line x1="1164" y1="0" x2="1164" y2="1080" stroke="#2A1D12" stroke-width="3" opacity=".75"/><rect x="1224" y="0" width="52" height="1080" fill="#7A5A3C"/><line x1="1224" y1="0" x2="1224" y2="1080" stroke="#2A1D12" stroke-width="3" opacity=".75"/><rect x="1276" y="0" width="60" height="1080" fill="#7A5A3C"/><line x1="1276" y1="0" x2="1276" y2="1080" stroke="#2A1D12" stroke-width="3" opacity=".75"/><rect x="1336" y="0" width="60" height="1080" fill="#7A5A3C"/><line x1="1336" y1="0" x2="1336" y2="1080" stroke="#2A1D12" stroke-width="3" opacity=".75"/><rect x="1396" y="0" width="60" height="1080" fill="#86643F"/><line x1="1396" y1="0" x2="1396" y2="1080" stroke="#2A1D12" stroke-width="3" opacity=".75"/><rect x="1456" y="0" width="52" height="1080" fill="#795839"/><line x1="1456" y1="0" x2="1456" y2="1080" stroke="#2A1D12" stroke-width="3" opacity=".75"/><rect x="1508" y="0" width="52" height="1080" fill="#6F5036"/><line x1="1508" y1="0" x2="1508" y2="1080" stroke="#2A1D12" stroke-width="3" opacity=".75"/><rect x="1560" y="0" width="52" height="1080" fill="#795839"/><line x1="1560" y1="0" x2="1560" y2="1080" stroke="#2A1D12" stroke-width="3" opacity=".75"/><rect x="1612" y="0" width="52" height="1080" fill="#6F5036"/><line x1="1612" y1="0" x2="1612" y2="1080" stroke="#2A1D12" stroke-width="3" opacity=".75"/><rect x="1664" y="0" width="52" height="1080" fill="#86643F"/><line x1="1664" y1="0" x2="1664" y2="1080" stroke="#2A1D12" stroke-width="3" opacity=".75"/><rect x="1716" y="0" width="44" height="1080" fill="#86643F"/><line x1="1716" y1="0" x2="1716" y2="1080" stroke="#2A1D12" stroke-width="3" opacity=".75"/><rect x="1760" y="0" width="44" height="1080" fill="#795839"/><line x1="1760" y1="0" x2="1760" y2="1080" stroke="#2A1D12" stroke-width="3" opacity=".75"/><rect x="1804" y="0" width="52" height="1080" fill="#795839"/><line x1="1804" y1="0" x2="1804" y2="1080" stroke="#2A1D12" stroke-width="3" opacity=".75"/><rect x="1856" y="0" width="52" height="1080" fill="#6F5036"/><line x1="1856" y1="0" x2="1856" y2="1080" stroke="#2A1D12" stroke-width="3" opacity=".75"/><rect x="1908" y="0" width="60" height="1080" fill="#8D6A45"/><line x1="1908" y1="0" x2="1908" y2="1080" stroke="#2A1D12" stroke-width="3" opacity=".75"/><filter id="g1"><feTurbulence type="fractalNoise" baseFrequency=".35 .006" numOctaves="3" seed="4"/><feColorMatrix type="matrix" values="0 0 0 0 .08  0 0 0 0 .05  0 0 0 0 .02  0 0 0 1.2 -.25"/></filter><rect width="1920" height="1080" filter="url(#g1)" opacity=".75"/><linearGradient id="tl" x1="0" y1="0" x2="1" y2="1"><stop offset="0" stop-color="#fff" stop-opacity=".08"/><stop offset="1" stop-color="#000" stop-opacity=".25"/></linearGradient><rect width="1920" height="1080" fill="url(#tl)"/></svg>